<svg style="display: none;">
  <symbol viewBox="0 0 24 24"
    xmlns="http://www.w3.org/2000/svg"
    xmlns:xlink="http://www.w3.org/1999/xlink" id="email">
    <g fill="none" stroke="currentColor" stroke-linecap="round" stroke-width="2">
      <rect width="18" height="14" x="3" y="5" stroke-dasharray="64" stroke-dashoffset="64" rx="1">
        <animate fill="freeze" attributeName="stroke-dashoffset" dur="0.6s" values="64;0"></animate>
      </rect>
      <path stroke-dasharray="24" stroke-dashoffset="24" d="M3 6.5L12 12L21 6.5">
        <animate fill="freeze" attributeName="stroke-dashoffset" begin="0.6s" dur="0.4s" values="24;0"></animate>
      </path>
    </g>
  </symbol>
  <symbol viewBox="0 0 24 24"
    xmlns="http://www.w3.org/2000/svg"
    xmlns:xlink="http://www.w3.org/1999/xlink" id="search-error">
    <path fill="currentColor" d="M15.097 5.904A6.5 6.5 0 0 0 4 10.504l.001 1h-2v-1a8.5 8.5 0 1 1 15.176 5.258l5.344 5.345l-1.414 1.414l-5.344-5.345A8.478 8.478 0 0 1 10.5 19h-1v-2h1a6.5 6.5 0 0 0 4.596-11.096M1.672 13.257L4.5 16.086l2.829-2.829l1.414 1.415L5.915 17.5l2.828 2.828l-1.414 1.415L4.5 18.914l-2.828 2.829l-1.414-1.415L3.086 17.5L.258 14.672z"></path>
  </symbol>
  <symbol viewBox="0 0 24 24"
    xmlns="http://www.w3.org/2000/svg"
    xmlns:xlink="http://www.w3.org/1999/xlink" id="arrow-back">
    <path fill="currentColor" d="m9.55 12l7.35 7.35q.375.375.363.875t-.388.875t-.875.375t-.875-.375l-7.7-7.675q-.3-.3-.45-.675t-.15-.75t.15-.75t.45-.675l7.7-7.7q.375-.375.888-.363t.887.388t.375.875t-.375.875z"></path>
  </symbol>
</svg>